<?xml version="1.0" encoding="utf-8"?>
<!-- Generator: Adobe Illustrator 24.0.2, SVG Export Plug-In . SVG Version: 6.00 Build 0)  -->
<svg version="1.1" id="Layer_1" xmlns="http://www.w3.org/2000/svg" xmlns:xlink="http://www.w3.org/1999/xlink" x="0px" y="0px"
	 viewBox="0 0 480 480" style="enable-background:new 0 0 480 480;" xml:space="preserve">
<style type="text/css">
	.st0{fill:#ED1C2E;}
	.st1{fill:#FEBE10;}
	.st2{fill:#0061A9;}
</style>
<path class="st0" d="M396.5,222.5l48.7-10.1v30.8c0,17.8-1.5,30.6-39.3,39.9c-37.8,9.3-64.9-19.2-60.8-51c4-31.8,23-46.4,37.7-51.7
	l12.3-3.9c0,0,25.7-6,44.5,3.5c13.5,6.8,1.8,28.8-14.9,23c0,0-44.5-9.9-45.6,29.2c-1.1,35.1,30.7,26,35,18.9v-9.4l-8.7,1.4
	c-4.7,0.6-8.6-3-8.6-7.1L396.5,222.5z"/>
<path class="st0" d="M239.6,216v107.9l17.7-6c8.8-3,14.7-10.8,14.7-19.5v-40l35.6,38.7c5.4,5.9,14.7,7.1,21.7,2.9l0,0
	c6.3-3.8,10.1-10.4,10.1-17.4v-91.4l-16,4.3c-9.6,2.5-16.1,10.7-16.1,20v33.2l-27.8-31.1c-5.8-6.5-15.4-9.1-24-6.4L239.6,216z"/>
<path class="st0" d="M228.9,217.4V312c0,8.7-5.9,16.6-14.7,19.5l-22,7.4v-94.6c0-8.7,5.9-16.6,14.7-19.5L228.9,217.4z"/>
<path class="st0" d="M180.8,319.2l-23.3-21.8l24.9-37.2c4.6-6.9,2.3-15.9-5.1-20.2l-0.1,0c-7.4-4.3-17.2-2.1-21.7,4.9l-30.2,46.9
	v-37.4l-30.5,11.8l0.4,107.1l16.3-6.2c8.4-3.2,13.8-10.8,13.8-19.2v-33l28.7,28.6c7,7,18.8,7.3,26.3,0.7l0,0
	C188,337.3,188.2,326.1,180.8,319.2z"/>
<path class="st0" d="M427.6,138.6l-13.8-14.5c0,0,14.6-7.5,12.9-21.4c-1.7-13.8-12.6-19.1-29-16.5l-24.6,4v71.5l11.5-2.2
	c5.2-1.1,8.9-5.4,8.9-10.3v-16.9l17.8,19.8c2.1,2.3,5.1,3.6,8.1,3.6c2.7,0,5.2-0.9,7.2-2.6C431.2,149.2,431.5,142.8,427.6,138.6z
	 M393.2,120.8v-19.3c9-1.8,12.3,1.2,12.3,5.8C405.5,117.3,393.2,120.8,393.2,120.8z"/>
<path class="st0" d="M322.1,99.8v72.8l37.4-8.3c5-1.1,8.6-5.4,8.6-10.3v-8.1l-25.1,5.3v-13.9l13.5-2.6c5.2-1,8.9-5.3,8.9-10.3v-6.4
	l-22.4,4.6v-10.9l15.3-2.9c5.2-1,9-5.3,9-10.3V91L322.1,99.8z"/>
<path class="st0" d="M285.5,138.5l31.3-6.6c0,0,0,22.8,0,29.1c0,6.4-5.7,16.8-25,20.3s-41.2-4.3-39.3-35.5
	c1.9-31.3,27.5-40.7,42.7-41.2c5.2-0.1,12.2,0.3,17.3,3.4c8,4.8,4.1,17.3-5.6,16.5c-11-0.9-28.9-3.4-32,22
	c-0.6,8.6,1.8,18.1,12.8,18.1c6.7,0,9.7-4.1,9.7-4.1v-9.1c-7.7,2.2-12,1.3-12-5.6L285.5,138.5z"/>
<path class="st0" d="M247.4,175.3l-13-12.3c0,0,12.7-8.5,12.7-24.1c0-15.5-16.4-18-28.9-14.5l-23.3,7.1v74.8l12.6-4.3
	c4.3-1.5,7.1-5.5,7.1-9.9v-19.7l17.8,18c4,4.1,10.7,4.1,14.9,0.1v-0.1C251.8,186.2,251.8,179.4,247.4,175.3z M214.6,161v-20.9
	c0,0,11.8-4.5,11.8,5.1C226.4,156.5,214.6,161,214.6,161z"/>
<path class="st0" d="M131.8,151.5c0,0,0,35.5,0,48.2s5.9,21.8,21.1,21.8c15.2,0,35.6-10.2,35.6-35.7v-38c0-7.2-7.5-12.3-14.7-10
	l-6.3,2v53c0,4.3-1.9,8.1-7.3,9.3c-5.4,1.1-7.5-3-7.5-7.9l-0.2-34.9c0-7.3-7.8-12.4-15-9.8L131.8,151.5z"/>
<path class="st0" d="M114.8,195.8l3-2.9c4.7-4.5,7.3-10.6,7.2-17c-0.1-9.2-7.8-15.9-16.5-15.9c-1.9,0-3.9,0.3-5.9,1.1l-30.1,11.3
	v80.2l36.2-15.4c11.8-5,20.2-15.7,19.5-27.8C127.7,198.4,114.8,195.8,114.8,195.8z M93.3,179.1c0,0,10.9-4.6,11.5,3.6
	c0.8,10.1-11.5,13-11.5,13V179.1z M93.3,227.3v-19.1c0,0,12.4-5.3,13,4.1C107,224,93.3,227.3,93.3,227.3z"/>
<path class="st1" d="M361.4,66.4C347.6,38.9,298,19.3,221.3,41.3c-82.3,23.6-104.2,72-104.2,94.4c0,1.9,1,3.7,2.7,4.8
	c0.9,0.6,1.9,0.8,2.9,0.8c0.9,0,1.7-0.2,2.4-0.6c43.4-21.7,174.4-54.7,232.4-66.3c1.7-0.3,3.1-1.4,3.9-3
	C362.2,69.7,362.2,68,361.4,66.4z M160.1,89.7c-4.3,8.1-7.8,16.9-9.9,25.5v0.1c-0.7,3-3.8,4.8-6.8,4.1c-3-0.8-4.8-3.8-4-6.8
	c0-0.3,0.1-0.7,0.3-1c2.1-4.8,4.6-8.9,7.1-13.1c2.7-4.1,5.6-8.1,8.7-11.9c6.3-7.5,13.9-14.1,22.8-17.7
	C170.4,74.1,164.6,81.7,160.1,89.7z M306.6,74.3c1.4-1.8,10-11.9-0.2-22.1C295.2,41,273,41,273,41s44.5,0,55.6,11.1
	C339.2,62.7,309.8,73.2,306.6,74.3z"/>
<path class="st1" d="M403.8,299.8c-0.9-0.6-1.9-0.9-2.9-0.9c-0.9,0-1.7,0.4-2.4,0.7c-47.6,8.6-192.3,53.1-232.4,66.2
	c-1.7,0.6-3.1,1.4-3.9,3c-0.8,1.6-0.8,3.4,0,5c13.8,27.4,63.4,47,140.1,25c82.3-23.5,104.2-72,104.2-94.4
	C406.5,302.5,405.5,300.8,403.8,299.8z M384.2,325.8c-0.1,0.2-0.2,0.6-0.3,0.8c-3.2,7.1-7.1,12.6-11.6,18.1
	c-4.5,5.5-9.3,10.3-14.6,14.8c-5.3,4.3-10.8,8.3-16.7,11.8c-5.8,3.6-11.9,6.5-18,9.1c5.7-3.6,11.4-7.2,16.5-11.4
	c5.2-4.1,9.9-8.8,14.4-13.6c4.3-4.9,8.3-10.1,11.7-15.6c3.3-5.5,6.3-11.6,7.9-16.9v-0.3c0.9-2.9,4-4.7,7-3.8
	C383.4,319.8,385.1,322.8,384.2,325.8z"/>
<path class="st2" d="M58.6,312.4c5.7,12.8,12.8,24.9,20.9,36.2v46.3c-19.6-20.9-35.3-45.4-46-71.8C16.5,281.5,12,235.3,20,191.6
	c8.1-43.7,29.2-84.7,59.5-116.4c30.4-31.6,69.7-54.3,111.8-64.1c41.8-9.6,86.7-8.3,126.1,7.7c-20.3-6.3-41.3-9.5-62.2-8.8
	c-21,0.3-41.7,3.6-61.6,9.7C154,31.8,118.3,55.3,91.9,86.4c-26.6,30.8-44,69.1-49.5,108.9C36.6,235.1,42.2,276.3,58.6,312.4z"/>
<path class="st2" d="M471.2,339.8c-20.3,42.1-53.9,77.7-94.4,100.3c-40.5,22.8-87,32.5-132.3,30.7c-45.7-1.8-90.7-17-127.6-43.3
	c-12.2-8.6-23.6-18.2-33.9-28.9l31-12.8c6.6,5.7,13.5,10.8,20.7,15.5c32.9,21.5,71.9,33,110.7,33.2c39.3,0.1,78.2-9.8,110.9-29.6
	c32.8-19.6,59.1-49.2,74.6-83.9L471.2,339.8z"/>
</svg>
